Coordinates
version=1
nRows=10
nColumns=40
inDegrees=yes

Units are S.I. units (second, meters, Newtons, ...)
If the header above contains a line with 'inDegrees', this indicates whether rotational values are in degrees (yes) or radians (no).

endheader
time	pelvis_tilt	pelvis_list	pelvis_rotation	pelvis_tx	pelvis_ty	pelvis_tz	hip_flexion_r	hip_adduction_r	hip_rotation_r	knee_angle_r	knee_angle_r_beta	ankle_angle_r	subtalar_angle_r	mtp_angle_r	hip_flexion_l	hip_adduction_l	hip_rotation_l	knee_angle_l	knee_angle_l_beta	ankle_angle_l	subtalar_angle_l	mtp_angle_l	lumbar_extension	lumbar_bending	lumbar_rotation	arm_flex_r	arm_add_r	arm_rot_r	elbow_flex_r	pro_sup_r	wrist_flex_r	wrist_dev_r	arm_flex_l	arm_add_l	arm_rot_l	elbow_flex_l	pro_sup_l	wrist_flex_l	wrist_dev_l
      2.37500000	      3.31072403	     -5.61709096	      3.53204524	     -0.36171355	      0.79209603	     -1.05521211	     49.35328474	      0.98900781	     -5.65911015	      1.75288948	      0.03059369	    -10.58861619	      0.00000000	      0.00000000	     48.82750507	     -2.73027795	      0.35073584	     93.19403552	      1.62654276	     29.69886083	      0.00000000	      0.00000000	    -26.48813480	     -0.43185086	      5.63350850	     89.95771427	     -1.92860710	      8.73164465	     45.15894158	     81.39123296	      0.00000000	      0.00000000	     89.96627643	     -0.01785342	     20.58017367	     51.19069430	     71.35915355	      0.00000000	      0.00000000
      2.38000000	      3.34220161	     -5.64281855	      3.54993994	     -0.36164324	      0.79200842	     -1.05526305	     49.30010680	      1.01247458	     -5.71010908	      1.70342283	      0.02973034	    -10.64916062	      0.00000000	      0.00000000	     48.80373440	     -2.72310207	      0.38705027	     93.21621438	      1.62692986	     29.74872661	      0.00000000	      0.00000000	    -26.51792377	     -0.38577981	      5.59353144	     89.95770796	     -1.81364949	      8.94282792	     45.14542906	     78.83354122	      0.00000000	      0.00000000	     89.96633559	     -0.05900181	     20.56840002	     51.24834675	     69.73724462	      0.00000000	      0.00000000
      2.38500000	      3.36415492	     -5.63355537	      3.51901807	     -0.36163742	      0.79184813	     -1.05525625	     49.27137943	      1.04111529	     -5.69676080	      1.65668855	      0.02891467	    -10.76869298	      0.00000000	      0.00000000	     48.79802709	     -2.72782655	      0.37741908	     93.27640827	      1.62798044	     29.71630442	      0.00000000	      0.00000000	    -26.54507844	     -0.40232073	      5.59844648	     89.95787392	     -1.78256812	      9.21315441	     45.23806474	     75.78128418	      0.00000000	      0.00000000	     89.96635084	     -0.05720544	     20.59370828	     51.33150293	     67.31009247	      0.00000000	      0.00000000
      2.39000000	      3.39313704	     -5.69249294	      3.54781081	     -0.36121278	      0.79137745	     -1.05515212	     49.22702437	      1.08974529	     -5.66868874	      1.66028479	      0.02897744	    -10.34262462	      0.00000000	      0.00000000	     48.79180818	     -2.76957842	      0.45283823	     93.37532012	      1.62970678	     29.87322066	      0.00000000	      0.00000000	    -26.51992359	     -0.32301227	      5.58192661	     89.95774680	     -1.75267532	      9.87153441	     45.32478496	     70.47677971	      0.00000000	      0.00000000	     89.96643624	     -0.13712091	     20.75563044	     51.49922852	     63.08204882	      0.00000000	      0.00000000
      2.39500000	      3.28671687	     -5.64266791	      3.52146599	     -0.36156132	      0.79126890	     -1.05530071	     49.35841766	      1.04772652	     -5.68802199	      1.63463508	      0.02852976	    -10.78862259	      0.00000000	      0.00000000	     48.92100611	     -2.68276934	      0.42886987	     93.35115717	      1.62928505	     29.87154705	      0.00000000	      0.00000000	    -26.45050780	     -0.36073549	      5.60558694	     89.95782094	     -1.78203654	     10.12490751	     45.45757909	     67.71696901	      0.00000000	      0.00000000	     89.96650773	     -0.10183090	     20.72752483	     51.59686837	     60.27938283	      0.00000000	      0.00000000
      2.40000000	      3.24582134	     -5.57966713	      3.48856278	     -0.36148622	      0.79111258	     -1.05521487	     49.39416499	      1.03052766	     -5.56887473	      1.63420592	      0.02852227	    -10.66953225	      0.00000000	      0.00000000	     48.95724008	     -2.66241007	      0.36977196	     93.32889747	      1.62889655	     29.72656872	      0.00000000	      0.00000000	    -26.40330614	     -0.47174861	      5.63692819	     89.95780192	     -1.77046566	      8.46834074	     45.09339669	     81.36141753	      0.00000000	      0.00000000	     89.96666230	      0.01173368	     20.48034420	     51.36848456	     65.65597639	      0.00000000	      0.00000000
      2.40500000	      3.17706427	     -5.56363225	      3.49590576	     -0.36148354	      0.79080526	     -1.05520027	     49.51516341	      1.00557687	     -5.57048555	      1.75176102	      0.03057400	    -10.36185089	      0.00000000	      0.00000000	     49.04984581	     -2.62379683	      0.37522607	     93.38024778	      1.62979278	     29.84313980	      0.00000000	      0.00000000	    -26.31048119	     -0.47238592	      5.59649399	     89.95775726	     -1.71716357	      8.68165464	     45.07255877	     79.35865235	      0.00000000	      0.00000000	     89.96676827	     -0.00954438	     20.48882375	     51.32193428	     65.06350490	      0.00000000	      0.00000000
      2.41000000	      3.25523486	     -5.57352454	      3.47238425	     -0.36141849	      0.79087488	     -1.05509673	     49.39837956	      1.05798499	     -5.62642723	      1.63737642	      0.02857761	    -10.71595640	      0.00000000	      0.00000000	     48.96191856	     -2.69353526	      0.33780396	     93.39940633	      1.63012716	     29.78759327	      0.00000000	      0.00000000	    -26.39549674	     -0.49213757	      5.62864163	     89.95776478	     -1.72783037	      8.38129262	     45.05834792	     81.46493068	      0.00000000	      0.00000000	     89.96674623	     -0.01811321	     20.38934095	     51.42679432	     65.80494666	      0.00000000	      0.00000000
      2.41500000	      3.25188025	     -5.59233132	      3.47356897	     -0.36125688	      0.79078276	     -1.05497717	     49.38976549	      1.07806584	     -5.58921971	      1.63645645	      0.02856155	    -10.60689710	      0.00000000	      0.00000000	     48.96080976	     -2.72662838	      0.35439981	     93.42798075	      1.63062588	     29.85472688	      0.00000000	      0.00000000	    -26.37422951	     -0.48440036	      5.63213211	     89.95777609	     -1.72835435	      8.73271983	     45.08095792	     78.49943589	      0.00000000	      0.00000000	     89.96673912	     -0.03212500	     20.42119279	     51.50766883	     63.96768437	      0.00000000	      0.00000000
      2.42000000	      3.23264827	     -5.58924095	      3.45045104	     -0.36119546	      0.79069698	     -1.05483993	     49.40184438	      1.10274825	     -5.60198387	      1.61905138	      0.02825778	    -10.66038002	      0.00000000	      0.00000000	     48.98761542	     -2.78134844	      0.31290787	     93.43138243	      1.63068525	     29.79453109	      0.00000000	      0.00000000	    -26.34995926	     -0.51848124	      5.64772355	     89.95771446	     -1.71280157	      8.35020372	     45.01024749	     81.37222504	      0.00000000	      0.00000000	     89.96679080	      0.02541438	     20.26062515	     51.47878128	     64.59894972	      0.00000000	      0.00000000
